<svg width="54" height="54" viewBox="0 0 54 54" fill="none" xmlns="http://www.w3.org/2000/svg">
<path d="M53.4208 10.4286L53.4577 10.3309L27.0121 0L0.609458 10.438L0.52325 10.4038V10.4707L0.519531 10.4727L0.52325 10.484V43.6218L27 53.9999L53.4805 43.6213V10.4042L53.4208 10.4286ZM26.9874 2.03092L35.9571 5.24332L11.5053 14.7366L3.22241 11.4693L26.9874 2.03092ZM26.0562 51.6589L16.1398 47.6554L11.1631 45.7857L2.41552 42.3347V13.1843L11.0753 16.6003V23.8893L11.8471 23.6738L12.3687 24.3905L13.0948 24.221L13.7981 24.9639L14.4118 24.7524L15.4026 25.735V18.3069L16.1734 18.6112L26.0563 22.5091V51.6589H26.0562ZM27.0022 20.8501L17.3336 17.0355L41.1794 7.37122L51.014 11.3777L27.0022 20.8501ZM51.5895 42.3347L27.9472 51.6589V22.5092L51.5873 13.1837V42.334L51.5895 42.3347Z" fill="white"/>
</svg>
