<svg width="53" height="53" viewBox="0 0 53 53" fill="none" xmlns="http://www.w3.org/2000/svg">
<g clip-path="url(#clip0)">
<path d="M16.1484 38.301C15.577 38.301 15.1133 38.7648 15.1133 39.3362C15.1133 39.9076 15.577 40.3713 16.1484 40.3713C16.7198 40.3713 17.1836 39.9076 17.1836 39.3362C17.1836 38.7648 16.7198 38.301 16.1484 38.301Z" fill="white"/>
<path d="M46.5969 19.6681L52.697 13.568C52.9536 13.3114 53.057 12.9392 52.9697 12.587C52.8825 12.2348 52.617 11.954 52.2703 11.847L37.4158 7.26228C36.0767 2.958 32.0967 0.000244141 27.5351 0.000244141C23.2947 0.000244141 19.5023 2.58451 17.9327 6.48291L0.726934 11.8479C0.381088 11.9558 0.116709 12.2367 0.0300667 12.5886C-0.0565759 12.9403 0.0469398 13.3119 0.303141 13.5681L6.56366 19.8287L2.61516 26.4097C2.45357 26.6789 2.42304 27.007 2.53194 27.3015C2.64083 27.596 2.87757 27.825 3.17549 27.9243L8.90229 29.8331V45.7541C8.90229 46.1855 9.16998 46.5717 9.574 46.7233C13.0756 48.0363 26.086 52.9158 26.1559 52.9405C26.3612 53.0129 26.5926 53.0227 26.8182 52.9497C26.8212 52.9487 26.8243 52.9481 26.8273 52.947L45.4601 46.7361C45.8827 46.5952 46.1679 46.1996 46.1679 45.7541V29.4069L52.2751 27.4877C52.6205 27.3792 52.884 27.0983 52.9702 26.7467C53.0564 26.3952 52.9527 26.0242 52.6969 25.7682L46.5969 19.6681ZM37.8867 10.3518C37.8867 10.0888 37.8756 9.82636 37.8558 9.56478L50.0183 13.3188L44.8532 18.4838L36.4137 15.671C37.3694 14.0736 37.8867 12.2304 37.8867 10.3518ZM19.7018 7.6575C20.8509 4.31581 23.9989 2.07056 27.5351 2.07056C31.3446 2.07056 34.6486 4.64727 35.5698 8.33657C35.7334 8.99213 35.8164 9.67016 35.8164 10.3518C35.8164 12.2745 35.1783 14.0766 33.9709 15.564C32.3895 17.5145 30.0437 18.6331 27.5351 18.6331C24.8234 18.6331 22.2799 17.3021 20.7307 15.0717C19.7646 13.684 19.2539 12.0517 19.2539 10.3518C19.2539 9.42731 19.4045 8.52082 19.7018 7.6575ZM2.97757 13.3147L17.2938 8.85073C17.2219 9.34533 17.1835 9.84634 17.1835 10.3517C17.1835 12.0184 17.5783 13.6327 18.3309 15.0893L8.14673 18.4838L2.97757 13.3147ZM5.0544 26.3683L8.32757 20.9128L24.9483 26.453L21.6753 31.9085C19.9005 31.3169 6.94936 26.9998 5.0544 26.3683ZM25.4648 50.4714L10.9726 45.0368V30.5233C22.3748 34.3039 21.818 34.1885 22.1355 34.1885C22.4914 34.1885 22.8322 34.0043 23.0234 33.6858L25.4648 29.6165V50.4714ZM26.4999 24.788L11.1407 19.6683L19.5042 16.8806C21.4616 19.2871 24.4084 20.7034 27.5351 20.7034C30.4275 20.7034 33.146 19.513 35.1013 17.4158L41.8592 19.6682L26.4999 24.788ZM44.0976 45.008L27.5351 50.5288V28.8299L31.2048 33.4166C31.4718 33.7503 31.9162 33.8855 32.3235 33.7575L44.0976 30.0576V45.008ZM32.3788 31.5701L28.2357 26.3917L44.8532 20.8525L50.0252 26.0246L32.3788 31.5701Z" fill="white"/>
<path d="M22.7226 40.5986L20.4204 39.7353C19.8851 39.5347 19.2885 39.8058 19.0877 40.3411C18.8869 40.8765 19.1582 41.4731 19.6934 41.6739L21.9956 42.5372C22.532 42.7382 23.128 42.4658 23.3284 41.9314C23.5291 41.3961 23.2579 40.7994 22.7226 40.5986Z" fill="white"/>
<path d="M22.7227 45.0208L16.5118 42.6917C15.9765 42.491 15.3798 42.7622 15.179 43.2974C14.9782 43.8327 15.2495 44.4295 15.7848 44.6302L21.9957 46.9593C22.1155 47.0042 22.2383 47.0256 22.3591 47.0256C22.7782 47.0256 23.1726 46.7692 23.3285 46.3535C23.5293 45.8182 23.2581 45.2215 22.7227 45.0208Z" fill="white"/>
<path d="M33.4426 6.51427C33.0384 6.10994 32.3829 6.11004 31.9786 6.51427L26.4996 11.9934L25.1613 10.655C24.757 10.2508 24.1016 10.2508 23.6973 10.655C23.2929 11.0592 23.293 11.7147 23.6973 12.119L25.7677 14.1892C26.1719 14.5935 26.8274 14.5935 27.2317 14.1892L33.4426 7.97829C33.8469 7.57406 33.8469 6.9186 33.4426 6.51427Z" fill="white"/>
</g>
<defs>
<clipPath id="clip0">
<rect width="53" height="53" fill="white"/>
</clipPath>
</defs>
</svg>
