<svg width="54" height="54" viewBox="0 0 54 54" fill="none" xmlns="http://www.w3.org/2000/svg">
<path d="M12.6002 35.55C9.62207 35.55 7.2002 37.9719 7.2002 40.9501C7.2002 43.9282 9.62207 46.3501 12.6002 46.3501C15.5783 46.3501 18.0002 43.9282 18.0002 40.9501C18.0002 37.9719 15.5782 35.55 12.6002 35.55ZM12.6002 44.55C10.6147 44.55 9.00023 42.9354 9.00023 40.9501C9.00023 38.9646 10.6149 37.3501 12.6002 37.3501C14.5855 37.3501 16.2002 38.9647 16.2002 40.9501C16.2002 42.9354 14.5855 44.55 12.6002 44.55Z" fill="white"/>
<path d="M43.1998 35.55C40.2217 35.55 37.7998 37.9719 37.7998 40.9501C37.7998 43.9282 40.2217 46.3501 43.1998 46.3501C46.1779 46.3501 48.5998 43.9282 48.5998 40.9501C48.5998 37.9719 46.1779 35.55 43.1998 35.55ZM43.1998 44.55C41.2144 44.55 39.5998 42.9354 39.5998 40.9501C39.5998 38.9646 41.2145 37.3501 43.1998 37.3501C45.1853 37.3501 46.7998 38.9647 46.7998 40.9501C46.7998 42.9354 45.1853 44.55 43.1998 44.55Z" fill="white"/>
<path d="M53.857 30.5632L45.757 17.9632C45.5914 17.7057 45.3062 17.55 45.0001 17.55H35.1002C34.6025 17.55 34.2002 17.9533 34.2002 18.45V40.95C34.2002 41.4477 34.6025 41.8499 35.1002 41.8499H38.7001V40.0499H36.0001V19.3501H44.5087L52.2001 31.3147V40.0501H47.7001V41.85H53.1001C53.5978 41.85 54 41.4478 54 40.9501V31.05C54.0002 30.8781 53.9507 30.708 53.857 30.5632Z" fill="white"/>
<path d="M39.6002 29.25V22.9501H46.8003V21.15H38.7003C38.2025 21.15 37.8003 21.5532 37.8003 22.05V30.15C37.8003 30.6477 38.2025 31.05 38.7003 31.05H52.2003V29.2499H39.6002V29.25Z" fill="white"/>
<path d="M35.1 11.25H0.899965C0.403207 11.25 0 11.6532 0 12.15V40.95C0 41.4477 0.403207 41.85 0.899965 41.85H8.1V40.0499H1.80004V13.0499H34.2V40.0499H17.1V41.85H35.1C35.5977 41.85 36 41.4477 36 40.95V12.15C36 11.6532 35.5977 11.25 35.1 11.25Z" fill="white"/>
<path d="M6.2999 36.45H0.899902V38.25H6.2999V36.45Z" fill="white"/>
<path d="M34.1999 36.45H18.8999V38.25H34.1999V36.45Z" fill="white"/>
<path d="M53.1 36.45H49.5V38.25H53.1V36.45Z" fill="white"/>
<path d="M35.1001 14.85H3.6001V16.65H35.1001V14.85Z" fill="white"/>
<path d="M13.5002 40.0499H11.7002V41.85H13.5002V40.0499Z" fill="white"/>
<path d="M44.0998 40.0499H42.2998V41.85H44.0998V40.0499Z" fill="white"/>
<path d="M16.2001 7.65002H3.6001V9.45006H16.2001V7.65002Z" fill="white"/>
<path d="M1.80004 7.65002H0V9.45006H1.80004V7.65002Z" fill="white"/>
</svg>
